<mxfile host="app.diagrams.net" modified="2023-09-29T11:57:48.762Z" agent="Mozilla/5.0 (Windows NT 10.0; Win64; x64) AppleWebKit/537.36 (KHTML, like Gecko) Chrome/117.0.0.0 Safari/537.36" version="21.8.2" etag="yfOPXAeAei1YT6BXboVW" type="github">
  <diagram name="Page-1" id="DUmlYbKkV_HxGmiKC8_I">
    <mxGraphModel>
      <root>
        <mxCell id="0" />
        <mxCell id="1" parent="0" />
      </root>
    </mxGraphModel>
  </diagram>
</mxfile>
